<?xml version="1.0" encoding="UTF-8"?>
<svg xmlns="http://www.w3.org/2000/svg" version="1.1" width="180px" height="180px" style="shape-rendering:geometricPrecision; text-rendering:geometricPrecision; image-rendering:optimizeQuality; fill-rule:evenodd; clip-rule:evenodd" xmlns:xlink="http://www.w3.org/1999/xlink">
<g><path style="opacity:0.902" fill="#070606" d="M 179.5,65.5 C 179.5,77.5 179.5,89.5 179.5,101.5C 177.41,118.353 170.91,133.353 160,146.5C 148.762,156.54 136.262,164.706 122.5,171C 98.6892,177.328 75.0225,176.662 51.5,169C 31.491,160.656 16.6576,146.822 7,127.5C 5.07734,121.138 2.57734,115.138 -0.5,109.5C -0.5,99.1667 -0.5,88.8333 -0.5,78.5C 2.65261,65.8868 7.48595,53.8868 14,42.5C 25.2461,23.45 41.7461,11.6167 63.5,7C 84.8266,2.38048 106.16,2.38048 127.5,7C 143.877,14.2586 157.711,24.7586 169,38.5C 173.639,47.1025 177.139,56.1025 179.5,65.5 Z"/></g>
<g><path style="opacity:1" fill="#fdfdfd" d="M 170.5,62.5 C 171.245,72.1483 171.578,81.8149 171.5,91.5C 171.829,120.019 159.829,141.519 135.5,156C 111.488,169.689 86.1543,172.356 59.5,164C 27.0994,151.098 9.43274,127.265 6.5,92.5C 7.88899,87.7312 8.55565,82.7312 8.5,77.5C 12.7601,57.8096 22.0934,40.9763 36.5,27C 64.5642,9.62717 94.5642,5.62717 126.5,15C 143.194,22.0844 156.361,33.2511 166,48.5C 167.811,53.0792 169.311,57.7458 170.5,62.5 Z"/></g>
<g><path style="opacity:1" fill="#6cc10e" d="M 70.5,42.5 C 76.7907,42.935 78.6241,45.935 76,51.5C 68.2,59.1023 61.8666,67.7689 57,77.5C 51.9522,80.9467 48.2856,79.9467 46,74.5C 44.7561,70.2214 44.4228,65.888 45,61.5C 50.9512,54.5423 57.7845,48.7089 65.5,44C 67.3817,43.8019 69.0484,43.3019 70.5,42.5 Z"/></g>
<g><path style="opacity:1" fill="#ff6202" d="M 77.5,57.5 C 82.1785,57.3342 86.8452,57.5008 91.5,58C 97.9635,60.8977 104.63,63.231 111.5,65C 125.227,74.5859 128.394,87.0859 121,102.5C 112.594,110.618 103.094,117.118 92.5,122C 81.4697,122.657 71.9697,119.157 64,111.5C 60.9859,106.135 57.9859,100.801 55,95.5C 54.3333,91.5 54.3333,87.5 55,83.5C 61.5242,78.316 66.5242,71.9827 70,64.5C 72.3959,61.9334 74.8959,59.6 77.5,57.5 Z"/></g>
<g><path style="opacity:1" fill="#c4c4c4" d="M 170.5,62.5 C 171.953,68.267 172.62,74.267 172.5,80.5C 172.499,84.3492 172.165,88.0159 171.5,91.5C 171.578,81.8149 171.245,72.1483 170.5,62.5 Z"/></g>
<g><path style="opacity:1" fill="#b4b4b4" d="M 8.5,77.5 C 8.55565,82.7312 7.88899,87.7312 6.5,92.5C 6.44435,87.2688 7.11101,82.2688 8.5,77.5 Z"/></g>
</svg>
