<?xml version="1.0" encoding="UTF-8"?>
<!DOCTYPE svg PUBLIC "-//W3C//DTD SVG 1.1//EN" "http://www.w3.org/Graphics/SVG/1.1/DTD/svg11.dtd">
<svg xmlns="http://www.w3.org/2000/svg" version="1.1" width="1600px" height="413px" viewBox="0 0 1600 413" style="shape-rendering:geometricPrecision; text-rendering:geometricPrecision; image-rendering:optimizeQuality; fill-rule:evenodd; clip-rule:evenodd" xmlns:xlink="http://www.w3.org/1999/xlink">
<g><path style="opacity:0.918" fill="#f8f8f8" d="M 266.5,-0.5 C 268.167,-0.5 269.833,-0.5 271.5,-0.5C 280.532,3.79574 289.865,7.62908 299.5,11C 302.167,13.8055 302.833,16.9721 301.5,20.5C 313.505,20.3335 325.505,20.5001 337.5,21C 340.592,22.4232 342.592,24.7565 343.5,28C 341.646,39.5948 339.48,51.4281 337,63.5C 336.097,64.7014 334.931,65.5348 333.5,66C 328.136,66.1705 322.802,66.6705 317.5,67.5C 329.265,98.9614 340.932,130.461 352.5,162C 352.066,164.316 351.066,166.316 349.5,168C 338.538,171.932 327.538,175.765 316.5,179.5C 314.386,178.966 312.552,177.966 311,176.5C 307.161,166.825 303.328,157.158 299.5,147.5C 290.014,156.486 280.681,165.652 271.5,175C 268.878,176.805 266.211,176.805 263.5,175C 258.366,168.865 252.866,163.031 247,157.5C 244.333,163.5 241.667,169.5 239,175.5C 237.448,176.966 235.614,177.966 233.5,178.5C 223.219,175.179 212.885,172.013 202.5,169C 197.857,166.928 196.357,163.428 198,158.5C 210.833,128.167 223.667,97.8333 236.5,67.5C 229.189,66.6687 221.856,66.1687 214.5,66C 210.504,65.1642 208.504,62.6642 208.5,58.5C 209.253,47.1201 210.419,35.7868 212,24.5C 213.214,22.9512 214.714,21.7845 216.5,21C 229.496,20.5001 242.496,20.3334 255.5,20.5C 257.362,14.7517 259.529,9.08501 262,3.5C 263.397,1.92975 264.897,0.596413 266.5,-0.5 Z M 256.5,135.5 C 262.769,118.958 269.602,102.625 277,86.5C 280.505,95.6834 284.005,104.85 287.5,114C 285.568,114.138 283.734,113.638 282,112.5C 280.933,113.191 279.766,113.691 278.5,114C 271.298,121.369 263.965,128.536 256.5,135.5 Z"/></g>
<g><path style="opacity:0.917" fill="#f8f8f8" d="M 574.5,-0.5 C 575.833,-0.5 577.167,-0.5 578.5,-0.5C 587.948,3.59995 597.615,7.43328 607.5,11C 610.167,13.8055 610.833,16.9721 609.5,20.5C 621.505,20.3335 633.505,20.5001 645.5,21C 649.48,22.4783 651.146,25.3116 650.5,29.5C 649.582,40.724 647.749,52.0574 645,63.5C 644.097,64.7014 642.931,65.5348 641.5,66C 636.136,66.1705 630.802,66.6705 625.5,67.5C 637.265,98.9614 648.932,130.461 660.5,162C 660.066,164.316 659.066,166.316 657.5,168C 646.5,171.833 635.5,175.667 624.5,179.5C 622.386,178.966 620.552,177.966 619,176.5C 615.161,166.825 611.328,157.158 607.5,147.5C 598.014,156.486 588.681,165.652 579.5,175C 576.878,176.805 574.211,176.805 571.5,175C 566.366,168.865 560.866,163.031 555,157.5C 552.333,163.5 549.667,169.5 547,175.5C 545.448,176.966 543.614,177.966 541.5,178.5C 529.368,175.179 517.535,171.179 506,166.5C 505.598,165.128 505.098,163.795 504.5,162.5C 517.558,130.718 530.891,99.0515 544.5,67.5C 537.189,66.6687 529.856,66.1687 522.5,66C 518.154,64.7009 516.154,61.7009 516.5,57C 517.338,47.5972 518.338,38.2639 519.5,29C 518.379,24.7685 520.045,22.1018 524.5,21C 537.496,20.5001 550.496,20.3334 563.5,20.5C 565.092,14.644 567.258,8.97735 570,3.5C 571.397,1.92975 572.897,0.596413 574.5,-0.5 Z M 564.5,135.5 C 570.769,118.958 577.602,102.625 585,86.5C 588.505,95.6834 592.005,104.85 595.5,114C 593.568,114.138 591.734,113.638 590,112.5C 588.933,113.191 587.766,113.691 586.5,114C 579.298,121.369 571.965,128.536 564.5,135.5 Z"/></g>
<g><path style="opacity:0.882" fill="#fefefe" d="M 1046.5,4.5 C 1050.61,5.44016 1053.27,7.94016 1054.5,12C 1050.53,37.3615 1049.69,62.8615 1052,88.5C 1054.02,99.2515 1058.36,108.918 1065,117.5C 1071.2,120.825 1077.86,122.492 1085,122.5C 1089.47,121.736 1093.97,121.403 1098.5,121.5C 1098.02,84.4385 1098.52,47.4385 1100,10.5C 1102.51,7.71504 1105.68,6.38171 1109.5,6.5C 1119.18,7.15777 1128.85,7.9911 1138.5,9C 1140.85,9.34588 1142.68,10.5125 1144,12.5C 1145.15,37.6061 1145.65,62.7728 1145.5,88C 1145.65,113.227 1145.15,138.394 1144,163.5C 1141.42,166.142 1138.26,167.642 1134.5,168C 1126.33,168.8 1118.16,169.634 1110,170.5C 1108.24,170.456 1106.57,170.122 1105,169.5C 1099.75,172.988 1093.92,174.654 1087.5,174.5C 1053,176.686 1029.16,162.019 1016,130.5C 1006.74,105.87 1002.58,80.37 1003.5,54C 1003.45,40.7055 1004.61,27.5388 1007,14.5C 1008.32,12.5125 1010.15,11.3459 1012.5,11C 1024.03,9.13728 1035.36,6.97062 1046.5,4.5 Z"/></g>
<g><path style="opacity:1" fill="#010101" d="M 245.5,61.5 C 246.043,61.44 246.376,61.1067 246.5,60.5C 236.188,59.5014 225.855,59.1681 215.5,59.5C 216.001,48.8201 216.667,38.1534 217.5,27.5C 231.516,27.8326 245.516,27.4992 259.5,26.5C 262.012,19.4327 265.179,12.766 269,6.5C 278.07,9.68729 286.903,13.354 295.5,17.5C 294.346,20.4518 293.346,23.4518 292.5,26.5C 307.155,27.3328 321.822,27.8328 336.5,28C 334.629,38.4008 333.129,48.9008 332,59.5C 324.224,60.1521 316.391,60.8188 308.5,61.5C 320.735,94.7053 333.068,127.872 345.5,161C 342.532,163.223 339.198,164.89 335.5,166C 329.241,167.975 323.075,170.141 317,172.5C 303.742,138.23 290.575,103.896 277.5,69.5C 262.716,103.009 248.216,136.676 234,170.5C 233.439,171.022 232.772,171.355 232,171.5C 222.357,168.715 212.857,165.549 203.5,162C 217.918,128.666 231.918,95.166 245.5,61.5 Z M 256.5,135.5 C 263.965,128.536 271.298,121.369 278.5,114C 279.766,113.691 280.933,113.191 282,112.5C 283.734,113.638 285.568,114.138 287.5,114C 284.005,104.85 280.505,95.6834 277,86.5C 269.602,102.625 262.769,118.958 256.5,135.5 Z"/></g>
<g><path style="opacity:1" fill="#010101" d="M 553.5,61.5 C 554.043,61.44 554.376,61.1067 554.5,60.5C 544.188,59.5014 533.855,59.1681 523.5,59.5C 523.835,48.8106 524.502,38.144 525.5,27.5C 539.516,27.8326 553.516,27.4992 567.5,26.5C 569.895,19.3805 573.061,12.7138 577,6.5C 585.946,9.81334 594.78,13.3133 603.5,17C 602.691,20.1967 601.691,23.3633 600.5,26.5C 615.155,27.3328 629.822,27.8328 644.5,28C 642.473,38.3788 640.973,48.8788 640,59.5C 632.253,60.4817 624.42,60.815 616.5,60.5C 628.528,94.08 640.861,127.58 653.5,161C 653.095,161.945 652.428,162.612 651.5,163C 642.51,166.16 633.51,169.327 624.5,172.5C 611.425,138.104 598.258,103.77 585,69.5C 570.391,103.051 556.058,136.718 542,170.5C 541.439,171.022 540.772,171.355 540,171.5C 530.352,168.729 520.852,165.562 511.5,162C 525.918,128.666 539.918,95.166 553.5,61.5 Z M 564.5,135.5 C 571.965,128.536 579.298,121.369 586.5,114C 587.766,113.691 588.933,113.191 590,112.5C 591.734,113.638 593.568,114.138 595.5,114C 592.005,104.85 588.505,95.6834 585,86.5C 577.602,102.625 570.769,118.958 564.5,135.5 Z"/></g>
<g><path style="opacity:0.909" fill="#fefffe" d="M 874.5,6.5 C 902.835,6.33336 931.169,6.50002 959.5,7C 973.53,10.8655 981.697,20.0321 984,34.5C 984.916,38.8317 985.749,43.1651 986.5,47.5C 985.294,52.2049 982.294,55.0382 977.5,56C 968.637,57.706 959.803,59.5393 951,61.5C 946.252,60.4181 943.085,57.5848 941.5,53C 935.5,52.3333 929.5,52.3333 923.5,53C 943.667,72.5 963.833,92 984,111.5C 990.133,126.268 989.799,140.935 983,155.5C 976.128,164.687 966.961,169.854 955.5,171C 934.833,171.667 914.167,171.667 893.5,171C 884.678,168.517 877.845,163.351 873,155.5C 868.653,147.794 865.487,139.627 863.5,131C 863.932,127.566 865.599,124.9 868.5,123C 878.87,119.599 889.204,116.099 899.5,112.5C 905.391,114.264 908.391,118.264 908.5,124.5C 916.174,124.666 923.841,124.5 931.5,124C 910.028,103.529 888.862,82.6952 868,61.5C 866.335,58.4374 866.835,55.6041 869.5,53C 865.5,51.6667 862.833,49 861.5,45C 864.123,33.5566 866.623,22.0566 869,10.5C 870.5,8.5313 872.333,7.19796 874.5,6.5 Z"/></g>
<g><path style="opacity:0.909" fill="#fefffe" d="M 1170.5,6.5 C 1198.84,6.33336 1227.17,6.50002 1255.5,7C 1269.53,10.8655 1277.7,20.0321 1280,34.5C 1280.92,38.8317 1281.75,43.1651 1282.5,47.5C 1281.29,52.2049 1278.29,55.0382 1273.5,56C 1264.64,57.706 1255.8,59.5393 1247,61.5C 1242.25,60.4181 1239.09,57.5848 1237.5,53C 1231.5,52.3333 1225.5,52.3333 1219.5,53C 1239.67,72.5 1259.83,92 1280,111.5C 1286.13,126.268 1285.8,140.935 1279,155.5C 1272.13,164.687 1262.96,169.854 1251.5,171C 1230.83,171.667 1210.17,171.667 1189.5,171C 1180.68,168.517 1173.84,163.351 1169,155.5C 1164.65,147.794 1161.49,139.627 1159.5,131C 1159.93,127.566 1161.6,124.9 1164.5,123C 1174.87,119.599 1185.2,116.099 1195.5,112.5C 1201.39,114.264 1204.39,118.264 1204.5,124.5C 1212.17,124.666 1219.84,124.5 1227.5,124C 1206.03,103.529 1184.86,82.6952 1164,61.5C 1162.34,58.4374 1162.84,55.6041 1165.5,53C 1161.5,51.6667 1158.83,49 1157.5,45C 1160.12,33.5566 1162.62,22.0566 1165,10.5C 1166.5,8.5313 1168.33,7.19796 1170.5,6.5 Z"/></g>
<g><path style="opacity:0.861" fill="#fefffe" d="M 1486.5,6.5 C 1489.94,6.30108 1493.27,6.80108 1496.5,8C 1498.49,9.31892 1499.65,11.1523 1500,13.5C 1500.67,63.8333 1500.67,114.167 1500,164.5C 1499.17,168 1497,170.167 1493.5,171C 1482.17,171.667 1470.83,171.667 1459.5,171C 1456,170.167 1453.83,168 1453,164.5C 1452.33,115.833 1452.33,67.1667 1453,18.5C 1453.69,15.804 1455.19,13.6374 1457.5,12C 1467.28,10.108 1476.95,8.27467 1486.5,6.5 Z"/></g>
<g><path style="opacity:0.917" fill="#f9f9f9" d="M 147.5,7.5 C 149.989,7.29777 152.323,7.79777 154.5,9C 163.796,17.79 172.463,26.9566 180.5,36.5C 179.902,37.7946 179.402,39.1279 179,40.5C 163.138,56.0286 147.638,71.8619 132.5,88C 139.591,101.523 147.924,114.19 157.5,126C 158.5,126.667 159.5,126.667 160.5,126C 164.696,123.782 168.863,121.616 173,119.5C 175.499,120.083 177.499,121.416 179,123.5C 183,133.5 187,143.5 191,153.5C 191.706,155.971 191.373,158.305 190,160.5C 174.855,177.398 156.689,181.565 135.5,173C 129.309,168.442 124.142,162.942 120,156.5C 113.082,145.666 106.415,134.666 100,123.5C 99.9559,139.9 99.2892,156.233 98,172.5C 96.8289,173.893 95.3289,174.727 93.5,175C 81.4286,175.937 69.4286,175.604 57.5,174C 56.6667,173.167 55.8333,172.333 55,171.5C 54.3333,119.167 54.3333,66.8333 55,14.5C 56.214,12.9512 57.714,11.7845 59.5,11C 71.9043,10.061 84.2376,10.3943 96.5,12C 97.8932,13.1711 98.7265,14.6711 99,16.5C 99.3333,29.5 99.6667,42.5 100,55.5C 116.09,39.5781 131.923,23.5781 147.5,7.5 Z"/></g>
<g><path style="opacity:0.873" fill="#fefffe" d="M 1307.5,7.5 C 1318.84,7.33348 1330.17,7.50014 1341.5,8C 1343.85,8.34588 1345.68,9.51255 1347,11.5C 1348.45,27.0957 1348.95,42.7623 1348.5,58.5C 1360.17,58.5 1371.83,58.5 1383.5,58.5C 1383.05,42.7623 1383.55,27.0957 1385,11.5C 1386.32,9.51255 1388.15,8.34588 1390.5,8C 1402.57,7.06286 1414.57,7.39619 1426.5,9C 1428.49,10.3189 1429.65,12.1523 1430,14.5C 1430.17,29.8442 1430.67,45.1775 1431.5,60.5C 1434.71,62.5971 1436.54,65.5971 1437,69.5C 1437.7,78.0179 1438.53,86.5179 1439.5,95C 1439.18,100.153 1436.51,103.32 1431.5,104.5C 1430.67,119.155 1430.17,133.822 1430,148.5C 1425.33,162.601 1415.5,170.101 1400.5,171C 1392.13,172.827 1383.8,172.827 1375.5,171C 1373.51,169.681 1372.35,167.848 1372,165.5C 1371.33,155.833 1371.33,146.167 1372,136.5C 1372.35,134.152 1373.51,132.319 1375.5,131C 1378.61,130.356 1381.44,129.189 1384,127.5C 1384.5,119.841 1384.67,112.174 1384.5,104.5C 1372.78,104.812 1361.12,104.479 1349.5,103.5C 1348.67,123.158 1348.17,142.825 1348,162.5C 1347.65,164.848 1346.49,166.681 1344.5,168C 1333.28,170.704 1321.95,172.87 1310.5,174.5C 1307.05,174.408 1304.21,173.075 1302,170.5C 1300.35,118.558 1300.01,66.5583 1301,14.5C 1302.02,10.9853 1304.18,8.65196 1307.5,7.5 Z"/></g>
<g><path style="opacity:0.899" fill="#fafafa" d="M 379.5,10.5 C 414.168,10.3333 448.835,10.5 483.5,11C 486.667,11.5 488.5,13.3333 489,16.5C 488.253,26.8163 487.253,37.1496 486,47.5C 485.71,49.9519 485.044,52.2852 484,54.5C 457.149,69.017 435.816,89.3503 420,115.5C 417.471,119.926 415.638,124.592 414.5,129.5C 426.505,129.667 438.505,129.5 450.5,129C 455.216,125.951 458.882,121.951 461.5,117C 462.766,116.691 463.933,116.191 465,115.5C 474.718,120.944 484.218,126.777 493.5,133C 495.066,134.684 496.066,136.684 496.5,139C 492.598,151.818 485.264,162.151 474.5,170C 471.052,171.927 467.385,173.261 463.5,174C 437.541,175.62 411.541,175.954 385.5,175C 372.799,172.297 365.633,164.464 364,151.5C 361.844,135.278 365.178,120.278 374,106.5C 384.538,88.2811 397.371,71.7811 412.5,57C 397.5,56.6667 382.5,56.3333 367.5,56C 363.747,54.3262 362.247,51.4928 363,47.5C 366.469,36.7586 370.136,26.0919 374,15.5C 375.107,12.887 376.94,11.2203 379.5,10.5 Z"/></g>
<g><path style="opacity:0.912" fill="#f9f9f9" d="M 693.5,11.5 C 696.602,11.154 699.435,11.8207 702,13.5C 714.667,38.1667 727.333,62.8333 740,87.5C 744.637,80.8858 747.637,73.5524 749,65.5C 751.312,52.2244 751.812,38.8911 750.5,25.5C 750.2,21.1944 751.866,18.0278 755.5,16C 766.852,15.4675 778.185,15.8008 789.5,17C 791.286,17.7845 792.786,18.9512 794,20.5C 795.682,46.9639 793.015,72.9639 786,98.5C 774.26,125.589 757.094,148.756 734.5,168C 728.833,172.333 723.167,176.667 717.5,181C 713.355,184.155 708.855,186.655 704,188.5C 701.684,188.066 699.684,187.066 698,185.5C 692.871,173.943 688.038,162.277 683.5,150.5C 684.034,148.386 685.034,146.552 686.5,145C 694.683,138.74 702.683,132.24 710.5,125.5C 699.922,104.676 689.088,84.0089 678,63.5C 673.465,55.2666 669.631,46.7666 666.5,38C 666.869,34.6098 668.535,31.9431 671.5,30C 679.024,23.9688 686.357,17.8021 693.5,11.5 Z"/></g>
<g><path style="opacity:1" fill="#000000" d="M 1041.5,12.5 C 1043.17,12.5 1044.83,12.5 1046.5,12.5C 1043.98,35.4379 1043.15,58.4379 1044,81.5C 1045.7,97.7143 1051.86,111.881 1062.5,124C 1069.54,127.636 1077.04,129.47 1085,129.5C 1091.82,128.683 1098.66,128.016 1105.5,127.5C 1105.5,89.5 1105.5,51.5 1105.5,13.5C 1116.5,14.1667 1127.5,14.8333 1138.5,15.5C 1138.5,63.8333 1138.5,112.167 1138.5,160.5C 1127.53,161.83 1116.53,162.83 1105.5,163.5C 1105.67,158.489 1105.5,153.489 1105,148.5C 1103.46,154.285 1101.63,159.952 1099.5,165.5C 1057.25,173.806 1030.08,157.473 1018,116.5C 1012.65,96.0264 1010.15,75.193 1010.5,54C 1010.74,41.805 1011.4,29.6384 1012.5,17.5C 1022.38,16.3534 1032.05,14.6867 1041.5,12.5 Z"/></g>
<g><path style="opacity:1" fill="#000000" d="M 874.5,13.5 C 902.835,13.3334 931.169,13.5 959.5,14C 965.824,15.9946 970.657,19.8279 974,25.5C 976.779,32.6166 978.612,39.95 979.5,47.5C 969.744,50.5867 959.744,52.9201 949.5,54.5C 949.146,49.6417 946.479,46.8084 941.5,46C 930.167,45.3333 918.833,45.3333 907.5,46C 931,68.8333 954.5,91.6667 978,114.5C 981.867,124.228 982.533,134.228 980,144.5C 976.209,156.332 968.042,162.832 955.5,164C 934.833,164.667 914.167,164.667 893.5,164C 887.201,162.037 882.368,158.203 879,152.5C 874.988,145.798 872.155,138.631 870.5,131C 870.645,130.228 870.978,129.561 871.5,129C 880.87,125.932 890.204,122.765 899.5,119.5C 900.964,122.003 902.131,124.67 903,127.5C 904.214,129.049 905.714,130.215 907.5,131C 919.167,131.667 930.833,131.667 942.5,131C 943.672,129.132 943.505,127.298 942,125.5C 918.861,103.362 896.028,80.8618 873.5,58C 878.789,54.3799 883.789,50.3799 888.5,46C 881.833,45.6667 875.167,45.3333 868.5,45C 871.202,34.657 873.202,24.157 874.5,13.5 Z"/></g>
<g><path style="opacity:1" fill="#000000" d="M 1170.5,13.5 C 1198.84,13.3334 1227.17,13.5 1255.5,14C 1261.82,15.9946 1266.66,19.8279 1270,25.5C 1272.78,32.6166 1274.61,39.95 1275.5,47.5C 1265.74,50.5867 1255.74,52.9201 1245.5,54.5C 1245.15,49.6417 1242.48,46.8084 1237.5,46C 1226.17,45.3333 1214.83,45.3333 1203.5,46C 1227,68.8333 1250.5,91.6667 1274,114.5C 1277.87,124.228 1278.53,134.228 1276,144.5C 1272.21,156.332 1264.04,162.832 1251.5,164C 1230.83,164.667 1210.17,164.667 1189.5,164C 1183.2,162.037 1178.37,158.203 1175,152.5C 1170.99,145.798 1168.15,138.631 1166.5,131C 1166.64,130.228 1166.98,129.561 1167.5,129C 1176.87,125.932 1186.2,122.765 1195.5,119.5C 1196.96,122.003 1198.13,124.67 1199,127.5C 1200.21,129.049 1201.71,130.215 1203.5,131C 1215.17,131.667 1226.83,131.667 1238.5,131C 1239.67,129.132 1239.51,127.298 1238,125.5C 1214.86,103.362 1192.03,80.8618 1169.5,58C 1174.79,54.3799 1179.79,50.3799 1184.5,46C 1177.83,45.6667 1171.17,45.3333 1164.5,45C 1167.2,34.657 1169.2,24.157 1170.5,13.5 Z"/></g>
<g><path style="opacity:1" fill="#000000" d="M 1486.5,13.5 C 1488.83,13.5 1491.17,13.5 1493.5,13.5C 1493.5,63.8333 1493.5,114.167 1493.5,164.5C 1482.17,164.5 1470.83,164.5 1459.5,164.5C 1459.33,115.832 1459.5,67.1655 1460,18.5C 1468.94,16.8704 1477.77,15.2038 1486.5,13.5 Z"/></g>
<g><path style="opacity:1" fill="#020202" d="M 148.5,14.5 C 149.552,14.3505 150.552,14.5172 151.5,15C 158.833,22.3333 166.167,29.6667 173.5,37C 156.986,53.3472 140.653,69.8472 124.5,86.5C 132.388,103.123 142.388,118.29 154.5,132C 161.463,133.354 167.463,131.52 172.5,126.5C 177.838,136.355 181.671,146.689 184,157.5C 171.083,171.059 155.916,174.226 138.5,167C 134.003,162.868 129.836,158.368 126,153.5C 116.245,138.997 107.245,123.997 99,108.5C 97,110.5 95,112.5 93,114.5C 92.5001,132.497 92.3334,150.497 92.5,168.5C 81.8333,168.5 71.1667,168.5 60.5,168.5C 60.5,118.167 60.5,67.8333 60.5,17.5C 71.1667,17.5 81.8333,17.5 92.5,17.5C 92.3334,35.5031 92.5001,53.5031 93,71.5C 112.066,52.9359 130.566,33.9359 148.5,14.5 Z"/></g>
<g><path style="opacity:1" fill="#000000" d="M 1307.5,14.5 C 1318.83,14.5 1330.17,14.5 1341.5,14.5C 1341.5,31.5 1341.5,48.5 1341.5,65.5C 1357.83,65.5 1374.17,65.5 1390.5,65.5C 1390.5,48.5 1390.5,31.5 1390.5,14.5C 1401.5,14.5 1412.5,14.5 1423.5,14.5C 1423.5,31.8333 1423.5,49.1667 1423.5,66.5C 1425.5,66.5 1427.5,66.5 1429.5,66.5C 1430.66,76.8101 1431.66,87.1434 1432.5,97.5C 1429.5,97.5 1426.5,97.5 1423.5,97.5C 1423.67,114.503 1423.5,131.503 1423,148.5C 1421.04,155.611 1416.54,160.111 1409.5,162C 1399.34,164.713 1389.01,165.88 1378.5,165.5C 1378.5,155.833 1378.5,146.167 1378.5,136.5C 1384.39,136.432 1388.56,133.765 1391,128.5C 1391.5,118.172 1391.67,107.839 1391.5,97.5C 1377.83,97.6666 1364.16,97.4999 1350.5,97C 1347.67,92.8333 1344.83,88.6667 1342,84.5C 1341.5,110.498 1341.33,136.498 1341.5,162.5C 1330.2,164.384 1318.86,166.05 1307.5,167.5C 1307.5,116.5 1307.5,65.5 1307.5,14.5 Z"/></g>
<g><path style="opacity:1" fill="#010101" d="M 428.5,50.5 C 408.833,49.8333 389.167,49.1667 369.5,48.5C 373.114,38.2689 376.447,27.9356 379.5,17.5C 413.833,17.5 448.167,17.5 482.5,17.5C 481.414,28.5181 480.081,39.5181 478.5,50.5C 449.474,66.6922 426.974,89.3589 411,118.5C 408.369,123.888 406.869,129.555 406.5,135.5C 421.837,135.667 437.17,135.5 452.5,135C 457.975,132.025 462.308,127.858 465.5,122.5C 473.889,127.688 481.889,133.354 489.5,139.5C 485.774,148.46 480.441,156.293 473.5,163C 469.469,165.455 465.136,167.121 460.5,168C 434.5,168.667 408.5,168.667 382.5,168C 372.889,162.103 368.889,153.436 370.5,142C 370.076,133.787 371.576,125.953 375,118.5C 388.534,92.464 406.368,69.7973 428.5,50.5 Z"/></g>
<g><path style="opacity:1" fill="#020202" d="M 695.5,17.5 C 696.376,17.3691 697.043,17.7025 697.5,18.5C 711.261,45.6916 725.261,72.6916 739.5,99.5C 750.106,86.8692 755.94,72.2026 757,55.5C 757.5,44.505 757.667,33.505 757.5,22.5C 767.841,22.6486 778.174,22.9819 788.5,23.5C 788.499,47.8491 785.665,71.8491 780,95.5C 763.948,132.059 738.781,160.726 704.5,181.5C 699.2,171.727 694.534,161.56 690.5,151C 699.986,143.014 709.32,134.847 718.5,126.5C 703.167,97.1667 687.833,67.8333 672.5,38.5C 680.486,31.8469 688.153,24.8469 695.5,17.5 Z"/></g>
<g><path style="opacity:1" fill="#8a8a8a" d="M 369.5,48.5 C 389.167,49.1667 408.833,49.8333 428.5,50.5C 408.489,50.833 388.489,50.4996 368.5,49.5C 368.624,48.8933 368.957,48.56 369.5,48.5 Z"/></g>
<g><path style="opacity:1" fill="#acacac" d="M 215.5,59.5 C 225.855,59.1681 236.188,59.5014 246.5,60.5C 246.376,61.1067 246.043,61.44 245.5,61.5C 235.5,60.8333 225.5,60.1667 215.5,59.5 Z"/></g>
<g><path style="opacity:1" fill="#ababab" d="M 523.5,59.5 C 533.855,59.1681 544.188,59.5014 554.5,60.5C 554.376,61.1067 554.043,61.44 553.5,61.5C 543.5,60.8333 533.5,60.1667 523.5,59.5 Z"/></g>
<g><path style="opacity:1" fill="#030303" d="M 281.5,119.5 C 287.996,125.163 293.996,131.329 299.5,138C 288.986,148.681 278.319,159.181 267.5,169.5C 261.677,163.509 256.011,157.343 250.5,151C 261.035,140.632 271.369,130.132 281.5,119.5 Z"/></g>
<g><path style="opacity:1" fill="#030303" d="M 589.5,119.5 C 595.947,125.115 601.947,131.282 607.5,138C 596.986,148.681 586.319,159.181 575.5,169.5C 569.861,163.526 564.195,157.526 558.5,151.5C 568.855,140.813 579.188,130.146 589.5,119.5 Z"/></g>
<g><path style="opacity:0.9" fill="#010000" d="M 1599.5,293.5 C 1599.5,305.5 1599.5,317.5 1599.5,329.5C 1596.25,359.242 1581.59,381.408 1555.5,396C 1547.54,400.48 1539.21,404.146 1530.5,407C 1533.22,407.27 1535.89,407.77 1538.5,408.5C 1539.63,409.808 1539.63,411.142 1538.5,412.5C 1537.17,412.5 1535.83,412.5 1534.5,412.5C 1298.56,401.082 1062.56,390.082 826.5,379.5C 819.79,371.456 813.457,363.123 807.5,354.5C 1026.04,370.809 1245.04,386.642 1464.5,402C 1430.38,387.079 1411.71,361.079 1408.5,324C 1409.57,293.196 1421.24,267.196 1443.5,246C 1449.01,241.832 1455.01,238.498 1461.5,236C 1243.51,258.927 1025.51,282.093 807.5,305.5C 812.777,296.599 818.777,288.266 825.5,280.5C 1065.91,260.929 1306.57,241.596 1547.5,222.5C 1547.5,223.833 1547.5,225.167 1547.5,226.5C 1528.07,226.614 1527.74,228.447 1546.5,232C 1564.97,239.811 1579.8,251.978 1591,268.5C 1594.93,276.591 1597.76,284.924 1599.5,293.5 Z"/></g>
<g><path style="opacity:1" fill="#fdfdfd" d="M 1499.5,233.5 C 1533.38,230.536 1560.88,242.202 1582,268.5C 1591.68,285.588 1595.02,303.922 1592,323.5C 1590.84,353.332 1577.34,375.498 1551.5,390C 1519.89,406.564 1488.22,406.564 1456.5,390C 1423.71,368.312 1411.21,338.146 1419,299.5C 1425.03,280.577 1435.2,264.41 1449.5,251C 1453.84,247.828 1458.51,245.161 1463.5,243C 1475.33,238.658 1487.33,235.491 1499.5,233.5 Z"/></g>
<g><path style="opacity:1" fill="#6ac008" d="M 1482.5,268.5 C 1489.8,267.942 1492.3,270.942 1490,277.5C 1482.03,285.44 1475.53,294.44 1470.5,304.5C 1463.27,310.891 1458.77,309.224 1457,299.5C 1456.33,295.833 1456.33,292.167 1457,288.5C 1463.99,279.652 1472.49,272.985 1482.5,268.5 Z"/></g>
<g><path style="opacity:0.942" fill="#030100" d="M 809.5,281.5 C 803.89,290.442 797.89,299.109 791.5,307.5C 784.477,307.969 777.477,308.636 770.5,309.5C 776.085,300.576 782.085,291.909 788.5,283.5C 795.492,282.778 802.492,282.112 809.5,281.5 Z"/></g>
<g><path style="opacity:1" fill="#f59f00" d="M 825.5,280.5 C 818.777,288.266 812.777,296.599 807.5,305.5C 802.167,306.167 796.833,306.833 791.5,307.5C 797.89,299.109 803.89,290.442 809.5,281.5C 814.537,281.03 819.537,280.363 824.5,279.5C 825.107,279.624 825.44,279.957 825.5,280.5 Z"/></g>
<g><path style="opacity:0.961" fill="#000000" d="M 772.5,284.5 C 766.474,293.518 760.474,302.518 754.5,311.5C 695.481,317.483 636.147,323.649 576.5,330C 564.352,331.31 552.352,332.977 540.5,335C 611.175,340.167 681.842,345.334 752.5,350.5C 760.124,358.407 766.791,367.073 772.5,376.5C 626.271,370.147 480.104,363.48 334,356.5C 227.791,367.404 121.625,378.738 15.5,390.5C 14.2284,390.43 13.0617,390.097 12,389.5C 8.29391,375.559 4.12724,361.892 -0.5,348.5C -0.5,347.5 -0.5,346.5 -0.5,345.5C 0.495904,345.414 1.32924,345.748 2,346.5C 14.4173,345.031 26.9173,343.864 39.5,343C 26.1745,342.231 12.8412,341.731 -0.5,341.5C -0.5,339.833 -0.5,338.167 -0.5,336.5C 3.43462,323.428 6.76796,310.095 9.5,296.5C 116.332,304.104 223.165,311.771 330,319.5C 477.798,307.946 625.298,296.279 772.5,284.5 Z"/></g>
<g><path style="opacity:1" fill="#f69f00" d="M 788.5,283.5 C 782.085,291.909 776.085,300.576 770.5,309.5C 765.124,309.949 759.791,310.616 754.5,311.5C 760.474,302.518 766.474,293.518 772.5,284.5C 777.746,284.127 782.912,283.46 788,282.5C 788.399,282.728 788.565,283.062 788.5,283.5 Z"/></g>
<g><path style="opacity:1" fill="#ff6102" d="M 1493.5,283.5 C 1497.51,283.334 1501.51,283.501 1505.5,284C 1513.25,287.583 1521.25,290.583 1529.5,293C 1539.3,300.449 1543.14,310.283 1541,322.5C 1540.3,326.928 1538.64,330.928 1536,334.5C 1527.27,341.787 1517.77,347.954 1507.5,353C 1497.11,353.702 1487.77,350.869 1479.5,344.5C 1476.58,339.66 1473.41,334.994 1470,330.5C 1466.9,324.859 1465.9,318.859 1467,312.5C 1474.87,305.079 1481.53,296.746 1487,287.5C 1489.31,286.267 1491.48,284.933 1493.5,283.5 Z"/></g>
<g><path style="opacity:1" fill="#f59f00" d="M 752.5,350.5 C 752.56,349.957 752.893,349.624 753.5,349.5C 759.124,350.918 764.791,351.918 770.5,352.5C 776.525,360.852 782.525,369.185 788.5,377.5C 783.13,377.608 777.797,377.275 772.5,376.5C 766.791,367.073 760.124,358.407 752.5,350.5 Z"/></g>
<g><path style="opacity:0.947" fill="#040200" d="M 770.5,352.5 C 777.196,352.391 783.863,352.724 790.5,353.5C 797.978,360.976 804.311,369.309 809.5,378.5C 802.2,377.944 795.2,377.611 788.5,377.5C 782.525,369.185 776.525,360.852 770.5,352.5 Z"/></g>
<g><path style="opacity:1" fill="#f59f00" d="M 790.5,353.5 C 790.56,352.957 790.893,352.624 791.5,352.5C 796.76,353.657 802.093,354.324 807.5,354.5C 813.457,363.123 819.79,371.456 826.5,379.5C 826.44,380.043 826.107,380.376 825.5,380.5C 820.213,379.571 814.879,378.904 809.5,378.5C 804.311,369.309 797.978,360.976 790.5,353.5 Z"/></g>
</svg>
